<?xml version="1.0" standalone="no"?>
<!DOCTYPE svg PUBLIC "-//W3C//DTD SVG 20010904//EN"
 "http://www.w3.org/TR/2001/REC-SVG-20010904/DTD/svg10.dtd">
<svg version="1.0" xmlns="http://www.w3.org/2000/svg"
 width="512.000000pt" height="512.000000pt" viewBox="0 0 512.000000 512.000000"
 preserveAspectRatio="xMidYMid meet">
<metadata>
Created by potrace 1.14, written by Peter Selinger 2001-2017
</metadata>
<g transform="translate(0.000000,512.000000) scale(0.100000,-0.100000)"
fill="#000000" stroke="none">
<path d="M1250 5110 c0 -5 -7 -10 -16 -10 -24 0 -96 -46 -139 -87 -63 -63 -96
-146 -102 -261 -5 -93 -5 -99 19 -127 18 -20 34 -28 56 -28 55 0 68 22 75 127
3 58 12 108 22 131 22 45 74 89 124 104 28 8 379 11 1282 11 1182 0 1246 -1
1284 -19 59 -26 101 -80 114 -143 8 -37 11 -230 9 -607 l-3 -553 -24 -19 c-23
-18 -54 -19 -1077 -19 l-1053 0 -3 478 c-3 529 -2 515 -70 564 -29 20 -47 23
-138 26 -116 3 -155 -9 -195 -62 -19 -26 -20 -45 -25 -514 l-5 -487 -102 0
c-85 0 -105 3 -120 18 -16 16 -18 48 -21 372 -4 334 -5 354 -23 371 -30 27
-78 22 -106 -10 l-23 -27 0 -347 c1 -370 3 -390 51 -450 13 -17 39 -39 57 -48
30 -17 32 -22 32 -69 -1 -47 -3 -52 -40 -77 -22 -15 -52 -46 -67 -69 l-28 -43
-3 -1330 c-1 -868 1 -1349 8 -1385 21 -113 82 -198 182 -251 57 -31 72 -35
166 -38 l102 -4 0 -37 c0 -79 23 -122 93 -178 12 -9 67 -13 197 -13 l181 0 35
33 c49 44 58 62 64 132 l5 60 535 0 535 0 5 -60 c6 -70 15 -88 64 -133 l35
-32 186 0 c102 0 185 3 185 8 0 4 13 14 29 24 38 21 60 65 69 136 l7 57 95 5
c82 4 105 10 162 38 103 51 167 136 188 255 7 33 10 165 8 318 -3 260 -3 261
-27 280 -31 26 -73 24 -98 -3 -19 -22 -21 -40 -27 -307 -8 -307 -11 -325 -68
-378 -59 -56 9 -53 -1345 -53 -982 1 -1256 4 -1283 14 -52 18 -97 62 -117 115
-17 43 -18 124 -18 1368 0 1256 1 1323 18 1340 15 15 35 18 120 18 l102 0 5
-767 5 -767 35 -36 c44 -45 93 -58 197 -53 94 5 139 28 170 88 17 33 18 80 21
788 l3 752 1059 -2 c1002 -3 1060 -4 1077 -21 17 -17 18 -69 21 -924 l2 -907
22 -23 c26 -28 68 -30 99 -4 l24 19 3 907 c1 591 -1 920 -8 944 -11 42 -80
126 -110 136 -17 5 -20 15 -20 58 0 49 2 54 33 70 41 23 84 80 98 129 6 25 9
244 7 631 l-3 592 -28 61 c-34 74 -100 141 -181 183 l-59 31 -1303 0 c-863 0
-1304 -3 -1304 -10z m2588 -1687 l3 -33 -1280 0 -1281 0 0 28 c0 16 3 32 7 35
3 4 578 6 1277 5 l1271 -3 3 -32z"/>
<path d="M2505 4497 c-29 -25 -42 -82 -31 -140 9 -47 62 -75 103 -55 35 17 53
52 53 105 0 53 -16 88 -47 102 -35 16 -49 14 -78 -12z"/>
<path d="M3345 4498 c-51 -45 -39 -175 18 -197 33 -13 75 -2 92 22 18 25 20
115 4 150 -11 24 -47 47 -74 47 -8 0 -25 -10 -40 -22z"/>
<path d="M2828 4436 c-32 -16 -51 -58 -39 -89 14 -37 78 -84 133 -97 82 -20
190 19 225 83 18 33 16 53 -10 83 -29 33 -75 35 -113 5 -33 -26 -68 -27 -102
-3 -37 26 -66 32 -94 18z"/>
<path d="M2593 2548 c-44 -15 -93 -68 -104 -114 -12 -55 -11 -640 2 -687 5
-21 24 -53 40 -72 46 -52 87 -57 471 -53 359 3 363 4 415 60 40 43 43 67 43
410 0 311 -1 334 -20 372 -11 23 -36 52 -57 66 l-36 25 -361 2 c-229 1 -373
-2 -393 -9z m517 -153 c0 -42 -43 -251 -53 -257 -15 -10 -159 -10 -173 0 -13
8 -57 249 -48 263 3 5 66 9 140 9 114 0 134 -2 134 -15z m-410 -150 c29 -173
47 -212 114 -244 61 -30 250 -30 311 -1 68 33 84 64 111 218 32 182 32 182 49
182 13 0 15 -43 15 -310 l0 -310 -330 0 -330 0 0 311 c0 289 1 310 17 307 14
-3 22 -31 43 -153z"/>
</g>
</svg>
